<svg width="408" height="808" viewBox="0 0 408 808" fill="none" xmlns="http://www.w3.org/2000/svg">
<g filter="url(#filter0_d_41_24)">
<g clip-path="url(#clip0_41_24)">
<rect x="4" width="400" height="800" rx="4" fill="#7D0004"/>
<mask id="mask0_41_24" style="mask-type:alpha" maskUnits="userSpaceOnUse" x="4" y="0" width="400" height="800">
<path d="M404 0H4V800H404V0Z" fill="#C4C4C4"/>
</mask>
<g mask="url(#mask0_41_24)">
<path d="M159.82 188.701L131.561 142.679L-103.602 525.659L-75.343 571.681L159.82 188.701Z" fill="#A7051B"/>
<path d="M216.585 189.206V97.7778L159.665 189.206H216.585Z" fill="#A7051B"/>
<path d="M159.665 189.206V97.7778L102.745 189.206H159.665Z" fill="#EA242A"/>
<path d="M216.585 97.7778V6.34918L159.665 97.7778H216.585Z" fill="#EA242A"/>
<path d="M159.665 97.7778V6.34918L102.745 97.7778H159.665Z" fill="#A7051B"/>
<path d="M335.556 167.772L297.255 105.397L-34.9861 646.476L3.31469 708.851L335.556 167.772Z" fill="#EA242A"/>
<path d="M335.776 105.397H297.57V167.619H335.776V105.397Z" fill="#A7051B"/>
<path d="M57.5344 189.36L0.179077 95.9526L-332.062 637.032L-274.707 730.439L57.5344 189.36Z" fill="#EA242A"/>
<path d="M33.1907 201.905C56.4448 201.905 75.296 171.204 75.296 133.333C75.296 95.4624 56.4448 64.7619 33.1907 64.7619C9.93662 64.7619 -8.91455 95.4624 -8.91455 133.333C-8.91455 171.204 9.93662 201.905 33.1907 201.905Z" fill="#A7051B"/>
<path d="M349.73 562.635L264.681 424.127L29.5184 807.107L114.567 945.614L349.73 562.635Z" fill="#A7051B"/>
<path d="M320.569 573.968C355.45 573.968 383.727 527.917 383.727 471.111C383.727 414.305 355.45 368.254 320.569 368.254C285.688 368.254 257.411 414.305 257.411 471.111C257.411 527.917 285.688 573.968 320.569 573.968Z" fill="#EA242A"/>
</g>
</g>
</g>
<g clip-path="url(#clip1_41_24)">
<path d="M110 262H298V448H110V262Z" fill="#FEFBF9" fill-opacity="0.66"/>
<path d="M178.244 340.12H185.106L185.67 340.771L186.516 342.166L187.738 344.119L188.866 345.886L190.37 348.304L191.498 350.071L192.72 352.024L193.848 353.791L195.164 355.93L195.822 356.953L197.232 359.185L197.702 359.836L198.078 360.022V341.98L198.172 340.213L198.266 340.12H204L204.188 340.306V370.903L203.53 371.089H197.984L197.514 370.624L196.198 368.485L194.6 365.881L193.472 364.114L191.968 361.696L190.746 359.743L186.234 352.489L184.918 350.443L184.636 350.071V349.885L184.26 349.792L184.166 370.996L183.508 371.089H178.338L178.056 370.903V340.213L178.244 340.12Z" fill="#F51F20"/>
<path d="M223.27 340.12H245.83L247.334 340.213L247.428 340.678V342.259L247.334 345.421H238.404V370.438L238.31 371.089H232.482L232.2 370.996L232.106 345.514L223.364 345.421L223.176 345.142V340.213L223.27 340.12Z" fill="#F51F20"/>
<path d="M212.178 340.12H218.194L218.382 340.306V370.996L217.912 371.089H212.46L212.084 370.903V340.213L212.178 340.12Z" fill="#F51F20"/>
<path d="M163.862 340.12H169.596L169.972 340.213L170.066 340.678V356.953L169.972 370.996L167.622 371.089H163.956L163.768 370.903V340.213L163.862 340.12Z" fill="#F51F20"/>
</g>
<defs>
<filter id="filter0_d_41_24" x="0" y="0" width="408" height="808" filterUnits="userSpaceOnUse" color-interpolation-filters="sRGB">
<feFlood flood-opacity="0" result="BackgroundImageFix"/>
<feColorMatrix in="SourceAlpha" type="matrix" values="0 0 0 0 0 0 0 0 0 0 0 0 0 0 0 0 0 0 127 0" result="hardAlpha"/>
<feOffset dy="4"/>
<feGaussianBlur stdDeviation="2"/>
<feComposite in2="hardAlpha" operator="out"/>
<feColorMatrix type="matrix" values="0 0 0 0 0 0 0 0 0 0 0 0 0 0 0 0 0 0 0.25 0"/>
<feBlend mode="normal" in2="BackgroundImageFix" result="effect1_dropShadow_41_24"/>
<feBlend mode="normal" in="SourceGraphic" in2="effect1_dropShadow_41_24" result="shape"/>
</filter>
<clipPath id="clip0_41_24">
<rect x="4" width="400" height="800" rx="4" fill="white"/>
</clipPath>
<clipPath id="clip1_41_24">
<rect x="110" y="262" width="188" height="186" rx="4" fill="white"/>
</clipPath>
</defs>
</svg>
